<?xml version="1.0" standalone="no"?>
<!DOCTYPE svg PUBLIC "-//W3C//DTD SVG 20010904//EN"
 "http://www.w3.org/TR/2001/REC-SVG-20010904/DTD/svg10.dtd">
<svg version="1.0" xmlns="http://www.w3.org/2000/svg"
 width="2560.000000pt" height="1603.000000pt" viewBox="0 0 2560.000000 1603.000000"
 preserveAspectRatio="xMidYMid meet">

<g transform="translate(0.000000,1603.000000) scale(0.100000,-0.100000)"
fill="#000000" stroke="none">
<path d="M0 8015 l0 -8015 12800 0 12800 0 0 8015 0 8015 -12800 0 -12800 0 0
-8015z m17990 5405 l0 -380 -342 0 c-304 0 -343 -2 -360 -17 -17 -15 -18 -42
-18 -446 0 -387 2 -432 17 -449 15 -17 39 -18 335 -18 l318 0 0 -330 0 -330
-317 0 c-280 0 -319 -2 -335 -17 -17 -15 -18 -44 -18 -496 0 -433 2 -482 17
-499 15 -17 40 -18 385 -18 l368 0 0 -375 0 -375 -890 0 -890 0 0 2065 0 2065
865 0 865 0 0 -380z m-11717 342 c326 -69 554 -207 645 -391 l37 -75 0 -1626
0 -1625 -33 -67 c-56 -113 -169 -197 -347 -257 -180 -60 -196 -61 -1127 -61
l-848 0 0 2066 0 2065 783 -3 c767 -4 784 -4 890 -26z m2249 -1711 c3 -1739 3
-1740 24 -1767 43 -58 69 -69 159 -69 90 0 116 11 159 69 22 29 24 247 35
3109 l1 397 500 0 500 0 0 -1742 c-1 -1884 1 -1817 -54 -1963 -103 -271 -342
-427 -771 -502 -78 -13 -159 -17 -375 -17 -241 -1 -290 2 -395 21 -247 45
-424 116 -550 220 -117 97 -200 254 -225 428 -6 44 -10 709 -10 1813 l0 1742
500 0 500 0 2 -1739z m2758 1637 c151 -502 582 -1720 626 -1769 16 -18 18 -18
36 -3 17 16 18 57 18 946 l0 928 405 0 405 0 0 -2070 0 -2070 -432 2 -432 3
-213 650 c-118 358 -252 774 -300 925 -47 151 -92 283 -101 293 -14 16 -16 16
-34 1 -17 -16 -18 -57 -18 -946 l0 -928 -405 0 -405 0 0 2070 0 2070 410 0
409 0 31 -102z m3588 92 c336 -37 637 -180 752 -360 18 -28 41 -77 51 -111 18
-59 19 -118 19 -1632 0 -1001 -4 -1588 -10 -1615 -37 -158 -166 -272 -395
-347 -162 -53 -199 -55 -1112 -55 l-843 0 0 2065 0 2065 720 0 c434 0 759 -4
818 -10z m5157 -41 c255 -19 445 -87 555 -198 98 -99 170 -268 207 -486 26
-159 26 -697 0 -830 -42 -208 -89 -251 -360 -331 -127 -37 -179 -67 -155 -90
7 -6 54 -24 103 -39 197 -60 343 -165 407 -294 l23 -46 3 -887 3 -888 -454 0
-454 0 -6 392 c-4 215 -7 612 -7 883 l0 491 -42 41 c-62 61 -122 84 -234 90
-151 9 -134 129 -134 -964 l0 -933 -500 0 -500 0 0 2056 0 2056 708 -6 c389
-4 766 -11 837 -17z m-1760 -4739 c173 -555 550 -1616 592 -1662 15 -17 17
-17 35 -2 17 16 18 57 18 946 l0 928 405 0 405 0 0 -2070 0 -2070 -430 0 -429
0 -185 559 c-102 307 -237 721 -300 920 -62 199 -122 373 -131 388 l-18 27
-18 -23 c-18 -22 -19 -62 -19 -947 l0 -924 -405 0 -405 0 0 2070 0 2070 411
-2 411 -3 63 -205z m-6925 -190 l0 -380 -367 0 c-327 0 -368 -2 -385 -17 -17
-15 -18 -42 -18 -426 0 -368 2 -412 17 -429 15 -17 39 -18 335 -18 l318 0 0
-350 0 -350 -312 0 c-306 0 -312 0 -335 -22 l-23 -21 0 -869 0 -868 -505 0
-505 0 0 2065 0 2065 890 0 890 0 0 -380z m2130 0 l0 -380 -367 0 c-327 0
-368 -2 -385 -17 -17 -15 -18 -42 -18 -426 0 -368 2 -412 17 -429 15 -17 39
-18 335 -18 l318 0 0 -350 0 -350 -312 0 c-306 0 -312 0 -335 -22 l-23 -21 0
-869 0 -868 -505 0 -505 0 0 2065 0 2065 890 0 890 0 0 -380z m-4440 -1695 l0
-2065 -500 0 -500 0 0 2065 0 2065 500 0 500 0 0 -2065z m5790 398 c0 -1537 1
-1668 17 -1685 15 -17 39 -18 335 -18 l318 0 0 -380 0 -380 -835 0 -835 0 0
2065 0 2065 500 0 500 0 0 -1667z m2000 -398 l0 -2065 -495 0 -495 0 0 2065 0
2065 495 0 495 0 0 -2065z m-11457 2038 l196 -6 6 -56 c43 -372 262 -1779 282
-1810 l16 -25 21 25 c19 22 37 132 155 929 73 498 135 913 137 923 5 16 45 17
665 17 l659 0 0 -2045 0 -2045 -445 0 -445 0 0 1368 c-1 1190 -3 1370 -15
1387 -14 18 -16 18 -31 3 -20 -19 -14 18 -230 -1580 l-159 -1178 -306 0 -306
0 -22 138 c-61 380 -122 780 -246 1603 -75 497 -138 911 -141 920 -2 9 -13 24
-23 34 -47 41 -46 61 -42 -1362 l3 -1333 -451 0 -451 0 0 2050 0 2050 488 0
c269 0 577 -3 685 -7z m16337 -163 l0 -170 -835 0 -835 0 0 170 0 170 835 0
835 0 0 -170z m-2 -652 l-3 -152 -313 -91 c-261 -77 -318 -97 -342 -120 l-30
-29 32 -33 32 -33 313 0 313 0 0 -170 0 -170 -835 0 -835 0 0 178 0 178 337
89 c288 77 342 94 371 119 l33 29 -32 33 -33 34 -338 0 -338 0 0 145 0 145
835 0 836 0 -3 -152z m-105 -1096 c96 -48 146 -189 154 -434 7 -191 -11 -311
-61 -415 -62 -128 -76 -133 -391 -133 l-245 0 0 170 0 170 209 0 208 0 47 50
c44 47 46 51 46 110 0 59 -2 63 -46 110 l-47 50 -601 0 -602 0 -46 -47 c-73
-77 -72 -152 3 -229 l43 -44 178 0 178 0 0 -170 0 -170 -209 0 c-277 0 -308
11 -366 132 -50 103 -69 228 -62 397 8 200 51 344 126 419 62 62 50 61 776 59
l660 -2 48 -23z m-833 -1754 c0 -370 -5 -401 -75 -537 -123 -237 -340 -418
-547 -455 l-38 -7 0 122 0 122 73 76 c44 46 86 103 105 141 30 59 31 64 15 82
-13 15 -31 18 -105 18 l-88 0 0 380 0 380 330 0 330 0 0 -322z m-8743 -1304
c57 -29 58 -30 61 -78 2 -26 -1 -46 -5 -45 -5 2 -33 17 -64 32 -113 56 -292
45 -402 -25 -88 -57 -147 -153 -147 -243 0 -76 29 -136 100 -207 93 -93 173
-131 290 -136 82 -4 88 -3 154 32 38 20 70 36 72 36 2 0 4 -25 4 -55 0 -51 -2
-56 -27 -66 -58 -23 -189 -40 -258 -35 -265 20 -417 174 -418 421 -1 187 76
303 242 366 86 32 128 38 238 35 91 -2 109 -6 160 -32z m7020 -226 c329 -329
303 -331 303 19 l0 243 70 0 70 0 0 -405 0 -405 -78 0 -77 0 -265 265 c-249
249 -265 263 -282 248 -16 -15 -18 -38 -18 -265 l0 -248 -70 0 -70 0 0 405 0
405 77 0 78 0 262 -262z m1317 133 c53 -71 103 -135 112 -142 20 -16 36 0 147
148 l91 123 79 0 c60 0 76 -3 70 -12 -4 -7 -74 -114 -155 -238 l-148 -225 0
-167 0 -168 -75 0 -75 0 0 183 -1 182 -136 200 c-74 110 -142 210 -150 223
l-15 22 80 0 80 0 96 -129z m-14591 -73 c58 -101 161 -281 230 -400 l126 -218
-72 0 -72 0 -39 73 c-21 39 -50 84 -64 100 l-26 27 -181 0 -181 0 -26 -27
c-14 -16 -45 -63 -69 -105 l-43 -78 -68 0 c-37 0 -68 2 -68 5 0 7 442 805 446
805 1 0 49 -82 107 -182z m2737 147 l0 -35 -192 0 c-236 0 -228 4 -228 -118 0
-125 -5 -122 202 -122 l168 0 0 -45 0 -45 -167 0 c-141 0 -169 -3 -185 -17
-16 -14 -18 -33 -18 -151 0 -191 -12 -182 232 -182 l188 0 0 -30 0 -30 -255 0
-255 0 0 405 0 405 255 0 255 0 0 -35z m4922 -1 c255 -80 358 -296 247 -516
-42 -83 -112 -149 -212 -198 -115 -56 -202 -70 -307 -48 -224 46 -375 200
-388 393 -9 136 49 245 165 315 149 90 321 108 495 54z m4328 -364 c122 -212
224 -388 227 -392 2 -5 -29 -8 -69 -8 l-73 0 -35 67 c-19 37 -48 82 -64 100
l-28 33 -182 0 -182 0 -26 -27 c-14 -16 -44 -63 -67 -105 l-42 -78 -71 0 c-38
0 -68 4 -66 8 20 52 444 800 449 794 4 -4 107 -180 229 -392z m-13139 374 c42
-21 64 -91 64 -199 0 -77 -4 -97 -25 -135 -40 -71 -83 -90 -209 -90 -94 0
-107 -2 -128 -22 -22 -20 -23 -29 -23 -150 l0 -128 -45 0 -45 0 0 370 0 371
192 -1 c143 -1 199 -5 219 -16z m2555 4 c13 -6 34 -32 46 -57 19 -38 23 -62
23 -141 0 -83 -3 -101 -25 -140 -40 -72 -83 -90 -214 -90 -150 0 -146 4 -146
-167 l0 -133 -45 0 -45 0 0 370 0 371 191 -1 c113 -1 201 -6 215 -12z m2460 0
c28 -13 49 -56 65 -128 23 -105 -12 -235 -72 -268 -17 -9 -43 -26 -56 -37
l-24 -20 116 -138 116 -137 -73 0 -73 1 -80 116 c-111 162 -130 183 -168 183
-60 0 -67 -18 -67 -167 l0 -133 -45 0 -45 0 0 370 0 371 191 -1 c111 -1 201
-6 215 -12z m6818 -9 c63 -50 83 -229 36 -324 -37 -75 -84 -95 -219 -95 -144
0 -141 4 -141 -167 l0 -133 -45 0 -45 0 0 370 0 371 195 -1 c176 -1 196 -3
219 -21z m-1699 -201 c168 -234 174 -241 191 -227 7 6 77 100 156 210 l143
199 72 0 73 0 0 -370 0 -370 -45 0 -45 0 0 258 c0 217 -2 261 -16 280 -8 12
-19 22 -24 22 -5 0 -75 -87 -156 -192 -81 -106 -152 -199 -159 -206 -10 -11
-40 22 -158 175 -79 103 -154 196 -165 206 -19 18 -20 18 -36 -5 -14 -19 -16
-60 -16 -280 l0 -258 -45 0 -45 0 0 370 0 370 73 0 72 -1 130 -181z"/>
<path d="M5587 13114 c-4 -4 -7 -633 -7 -1397 l0 -1390 103 5 c172 9 271 63
296 161 15 61 16 2444 1 2499 -14 47 -58 84 -123 102 -59 16 -259 31 -270 20z"/>
<path d="M14307 13113 c-4 -3 -7 -632 -7 -1396 l0 -1390 103 6 c56 3 126 12
155 21 61 20 119 67 138 113 12 27 14 255 14 1280 0 1235 0 1248 -20 1281 -29
48 -90 71 -212 82 -125 11 -163 12 -171 3z"/>
<path d="M19510 12624 l0 -496 88 4 c75 2 98 8 147 33 37 19 72 46 92 73 l33
44 0 373 0 374 -37 30 c-55 46 -112 61 -225 61 l-98 0 0 -496z"/>
<path d="M5606 3831 c-30 -60 -52 -111 -49 -115 4 -3 52 -6 108 -6 56 0 104 3
108 6 6 6 -99 224 -108 224 -3 0 -29 -49 -59 -109z"/>
<path d="M13115 4082 c-145 -50 -245 -158 -245 -264 0 -13 8 -47 17 -74 22
-65 116 -160 198 -200 53 -25 71 -29 150 -29 80 0 96 3 149 30 149 75 237 230
195 342 -58 157 -292 255 -464 195z"/>
<path d="M17469 3835 c-27 -57 -49 -109 -49 -115 0 -11 202 -15 213 -4 6 7
-99 224 -109 224 -3 0 -28 -47 -55 -105z"/>
<path d="M4324 4067 c-3 -8 -3 -56 -2 -108 l3 -94 53 -3 c65 -4 146 21 167 51
8 12 15 41 15 64 0 51 -21 77 -77 92 -55 16 -152 14 -159 -2z"/>
<path d="M6880 3970 l0 -110 56 0 c120 0 184 41 184 116 0 74 -52 104 -177
104 l-63 0 0 -110z"/>
<path d="M9340 3971 l0 -111 56 0 c140 0 215 71 173 163 -16 36 -53 49 -146
55 l-83 5 0 -112z"/>
<path d="M16150 3970 l0 -110 63 0 c106 1 177 47 177 116 0 69 -60 104 -177
104 l-63 0 0 -110z"/>
</g>
</svg>
